#!OML:ASF E:\emotionWalksFemale\Project 1\Capture day 1\Session 1\Female1.ASF
:FULLY-SPECIFIED
:DEGREES
2714
root 5.76117 15.3137 40.2881 543.891 2.02206 -538.263
lowerback 8.21107 -0.564224 -4.41814
upperback -4.60795 -1.20257 0.153951
thorax -9.44254 -0.257842 2.83801
lowerneck 1.97553 -8.9644 -13.9138
upperneck -0.465598 -11.9932 21.9093
head 1.80993 -5.80579 8.7522
rclavicle 7.28049e-015 2.78299e-014
rhumerus -37.2837 5.45484 -84.8535
rradius 28.1986
rwrist 26.2017
rhand -4.27075 -53.4466
rfingers 7.12502
rthumb 21.4939 -82.2741
lclavicle 7.28049e-015 2.78299e-014
lhumerus -35.239 -6.99136 82.5487
lradius 34.7468
lwrist -16.3023
lhand -8.3641 -36.3691
lfingers 7.12502
lthumb 17.5585 -7.14197
rfemur -19.1717 21.8566 13.6499
rtibia 26.2796
rfoot -21.0433 -24.958
rtoes -10.5559
lfemur -8.06682 -20.3247 -25.2125
ltibia 23.3332
lfoot -31.4238 24.2581
ltoes -3.19891
2715
root 5.73099 15.313 40.3033 544.034 2.63261 -538.189
lowerback 8.26851 -0.908027 -4.61819
upperback -4.72174 -1.66197 0.529007
thorax -9.54963 -0.44786 3.4286
lowerneck 1.84195 -8.49474 -14.3598
upperneck -0.365625 -11.3958 21.6653
head 1.75934 -5.52351 8.78489
rclavicle -3.85145e-015 -1.19271e-014
rhumerus -37.5697 6.31589 -84.5221
rradius 28.1437
rwrist 26.4466
rhand -5.38732 -53.3255
rfingers 7.12502
rthumb 20.4212 -82.2717
lclavicle -3.85145e-015 -1.19271e-014
lhumerus -35.4567 -4.20909 81.5556
lradius 34.8236
lwrist -16.0916
lhand -8.22903 -35.9007
lfingers 7.12502
lthumb 17.6885 -6.68526
rfemur -19.3677 21.2278 13.6741
rtibia 26.3492
rfoot -20.7892 -24.8488
rtoes -11.6557
lfemur -8.19822 -20.6314 -25.2465
ltibia 23.2766
lfoot -31.8683 24.9156
ltoes -3.86256
2716
root 5.70756 15.3135 40.3066 544.232 3.29326 -538.193
lowerback 8.0904 -1.02605 -4.9019
upperback -4.85313 -1.82639 0.704411
thorax -9.56216 -0.496178 3.79911
lowerneck 2.05522 -8.2145 -14.5153
upperneck -0.523304 -11.0276 21.5462
head 1.60982 -5.36795 8.81158
rclavicle 6.23687e-015 -1.90833e-014
rhumerus -37.9619 6.69852 -84.2627
rradius 28.1047
rwrist 26.6829
rhand -4.79391 -53.5341
rfingers 7.12502
rthumb 20.9914 -82.4181
lclavicle 6.23687e-015 -1.90833e-014
lhumerus -35.9561 -1.11739 80.3166
lradius 35.8372
lwrist -15.7427
lhand -5.82993 -34.3316
lfingers 7.12502
lthumb 19.9958 -5.34041
rfemur -19.6105 21.152 13.5462
rtibia 26.4362
rfoot -20.9042 -24.9101
rtoes -10.5594
lfemur -8.33203 -20.9916 -25.3569
ltibia 23.2836
lfoot -32.6607 25.7403
ltoes -3.44797
2717
root 5.68685 15.3147 40.3043 544.201 3.30244 -538.154
lowerback 7.98706 -1.14533 -4.89886
upperback -4.79706 -1.9859 0.647736
thorax -9.42452 -0.5823 3.75645
lowerneck 2.1972 -8.2038 -14.0837
upperneck -0.744743 -10.9805 21.266
head 1.47014 -5.35984 8.65837
rclavicle 2.00027e-014 1.35174e-014
rhumerus -38.4141 6.218 -83.977
rradius 28.1841
rwrist 27.2487
rhand -2.70531 -53.9542
rfingers 7.12502
rthumb 22.9968 -82.6024
lclavicle 2.00027e-014 1.35174e-014
lhumerus -35.6904 -1.14393 79.8667
lradius 35.6699
lwrist -14.3767
lhand -6.44515 -34.1762
lfingers 7.12502
lthumb 19.4044 -5.12442
rfemur -19.3631 21.0694 13.6395
rtibia 26.5715
rfoot -21.0231 -25.5832
rtoes -9.69988
lfemur -8.20962 -20.9158 -25.386
ltibia 23.1885
lfoot -32.8001 25.2613
ltoes -2.32154
2718
root 5.66997 15.3061 40.3197 543.695 3.99938 -538.088
lowerback 8.59963 -0.958132 -4.9608
upperback -4.58748 -1.79876 0.524865
thorax -9.57843 -0.498141 3.6476
lowerneck 2.07749 -8.24766 -13.5571
upperneck -0.893274 -10.9864 21.0089
head 1.40212 -5.35855 8.48037
rclavicle 2.60905e-015 1.35174e-014
rhumerus -38.7413 5.59983 -83.8333
rradius 28.0639
rwrist 27.0024
rhand -1.52613 -54.2777
rfingers 7.12502
rthumb 24.1278 -82.7805
lclavicle 2.60905e-015 1.35174e-014
lhumerus -35.3503 -0.703569 79.2062
lradius 35.5916
lwrist -13.9174
lhand -7.35357 -34.122
lfingers 7.12502
lthumb 18.5307 -4.98467
rfemur -18.8748 20.7039 13.9476
rtibia 26.7865
rfoot -20.7803 -25.5995
rtoes -10.1321
lfemur -7.47601 -20.7206 -25.638
ltibia 23.0145
lfoot -33.4527 25.4228
ltoes -0.617661
2719
root 5.65049 15.3205 40.3221 543.818 2.87469 -538.19
lowerback 8.48322 -1.4276 -4.79274
upperback -4.53778 -2.41375 0.359905
thorax -9.40488 -0.819101 3.46813
lowerneck 2.07856 -8.30392 -13.2626
upperneck -1.13545 -11.0138 20.9794
head 1.31943 -5.37509 8.42291
rclavicle -1.19271e-014 6.36111e-015
rhumerus -39.3527 6.03687 -84.3585
rradius 27.97
rwrist 23.6774
rhand -5.17945 -53.8901
rfingers 7.12502
rthumb 20.621 -82.8147
lclavicle -1.19271e-014 6.36111e-015
lhumerus -35.0435 0.205954 78.3954
lradius 35.652
lwrist -13.2555
lhand -7.00337 -34.2986
lfingers 7.12502
lthumb 18.8676 -5.19368
rfemur -18.5175 20.0667 13.9042
rtibia 27.003
rfoot -22.2661 -26.342
rtoes -6.28489
lfemur -7.64762 -20.9214 -25.5913
ltibia 22.8325
lfoot -32.706 25.0845
ltoes -2.39611
2720
root 5.62531 15.3215 40.3193 543.734 3.6065 -538.292
lowerback 8.3165 -1.29481 -4.85637
upperback -4.42529 -2.2464 0.195337
thorax -9.20295 -0.749428 3.29294
lowerneck 2.13537 -8.33985 -13.0225
upperneck -1.33946 -11.0241 20.9879
head 1.24048 -5.38537 8.39069
rclavicle -5.22058e-014 -1.59028e-014
rhumerus -39.6717 5.22989 -83.7651
rradius 28.4146
rwrist 25.931
rhand -0.611555 -55.9057
rfingers 7.12502
rthumb 25.0045 -84.2893
lclavicle -5.22058e-014 -1.59028e-014
lhumerus -34.9395 0.819849 77.7999
lradius 35.6951
lwrist -13.276
lhand -8.649 -33.8708
lfingers 7.12502
lthumb 17.2843 -4.61937
rfemur -18.4584 19.5834 13.7791
rtibia 27.2258
rfoot -22.4386 -25.5619
rtoes -4.66723
lfemur -7.42531 -20.3778 -25.8911
ltibia 22.6925
lfoot -32.8674 25.1165
ltoes -1.65445
2721
root 5.59923 15.3142 40.3151 543.536 4.18904 -538.316
lowerback 8.28123 -1.26887 -4.82434
upperback -4.29232 -2.21844 0.0387798
thorax -9.04587 -0.752279 3.09966
lowerneck 2.08364 -8.30435 -12.5249
upperneck -1.38488 -10.94 20.7609
head 1.17762 -5.34055 8.23673
rclavicle 5.02677e-014 2.06736e-014
rhumerus -40.2665 6.02958 -84.6632
rradius 28.5751
rwrist 22.9974
rhand -3.20422 -55.9562
rfingers 7.12502
rthumb 22.518 -84.6632
lclavicle 5.02677e-014 2.06736e-014
lhumerus -34.8641 1.89483 76.8748
lradius 35.8382
lwrist -12.6405
lhand -8.00773 -33.9602
lfingers 7.12502
lthumb 17.9014 -4.76412
rfemur -18.2261 19.1584 13.7651
rtibia 27.3957
rfoot -21.9537 -25.2406
rtoes -5.39143
lfemur -7.06386 -20.2378 -26.1801
ltibia 22.5733
lfoot -33.0659 25.358
ltoes -1.01082
2722
root 5.58122 15.3105 40.3239 543.545 4.57495 -538.319
lowerback 8.27251 -1.28154 -4.84679
upperback -4.2621 -2.24506 -0.0703504
thorax -9.0089 -0.768949 2.99892
lowerneck 2.10447 -8.25177 -12.1365
upperneck -1.4547 -10.8432 20.5444
head 1.10098 -5.29605 8.10967
rclavicle 1.49834e-014 2.22639e-014
rhumerus -40.5392 5.06987 -84.1369
rradius 29.1071
rwrist 25.798
rhand 2.97693 -57.9141
rfingers 7.12502
rthumb 28.4385 -85.7731
lclavicle 1.49834e-014 2.22639e-014
lhumerus -34.9037 2.6208 76.2424
lradius 35.8847
lwrist -12.7078
lhand -8.85635 -33.7693
lfingers 7.12502
lthumb 17.0847 -4.50055
rfemur -18.2214 18.759 13.73
rtibia 27.4975
rfoot -21.452 -25.1648
rtoes -5.7969
lfemur -7.10792 -20.0583 -26.2598
ltibia 22.6301
lfoot -33.2838 25.4697
ltoes -1.19899
2723
root 5.56425 15.3064 40.3284 543.412 5.01912 -538.21
lowerback 8.3792 -1.25579 -4.74255
upperback -4.19359 -2.21025 -0.128954
thorax -9.00512 -0.763092 2.87525
lowerneck 2.16842 -8.22056 -12.0013
upperneck -1.54574 -10.7879 20.4816
head 1.04301 -5.2753 8.07479
rclavicle -6.18717e-015 -1.27222e-014
rhumerus -41.0927 4.9732 -84.0981
rradius 29.6741
rwrist 26.0731
rhand 4.73272 -58.1835
rfingers 7.12502
rthumb 30.115 -85.7499
lclavicle -6.18717e-015 -1.27222e-014
lhumerus -35.0052 3.29826 75.6789
lradius 36.1588
lwrist -12.3034
lhand -8.80092 -33.7223
lfingers 7.12502
lthumb 17.1381 -4.45811
rfemur -17.9904 18.3835 13.8852
rtibia 27.5378
rfoot -21.0424 -25.1005
rtoes -5.7466
lfemur -6.98054 -20.1609 -26.3134
ltibia 22.7971
lfoot -33.9289 25.7191
ltoes 0.269597
